<svg xmlns="http://www.w3.org/2000/svg" version="1.0" viewBox="0 0 1133.859 1133.858"><path fill="#C1D5DB" d="M847.564,197.718h13.115v13.112c0,1.683,1.364,3.047,3.05,3.047c1.682,0,3.047-1.364,3.047-3.047v-13.112 h13.117c1.682,0,3.047-1.37,3.047-3.052c0-1.684-1.365-3.05-3.047-3.05h-13.117v-13.114c0-1.683-1.365-3.05-3.047-3.05 c-1.686,0-3.05,1.367-3.05,3.05v13.114h-13.115c-1.685,0-3.05,1.366-3.05,3.05C844.514,196.348,845.879,197.718,847.564,197.718z"/><path fill="#C1D5DB" d="M899.256,102.229h13.115v13.113c0,1.682,1.367,3.051,3.049,3.051c1.684,0,3.049-1.369,3.049-3.051v-13.113 h13.115c1.682,0,3.05-1.367,3.05-3.052c0-1.682-1.368-3.046-3.05-3.046h-13.115V83.013c0-1.682-1.365-3.048-3.049-3.048 c-1.682,0-3.049,1.366-3.049,3.048v13.118h-13.115c-1.682,0-3.047,1.364-3.047,3.046 C896.209,100.861,897.575,102.229,899.256,102.229z"/><path fill="#C1D5DB" d="M888.83,421.623h13.115v13.113c0,1.682,1.367,3.051,3.049,3.051c1.684,0,3.049-1.369,3.049-3.051v-13.113 h13.115c1.682,0,3.05-1.367,3.05-3.052c0-1.682-1.368-3.046-3.05-3.046h-13.115v-13.118c0-1.682-1.365-3.048-3.049-3.048 c-1.682,0-3.049,1.366-3.049,3.048v13.118H888.83c-1.682,0-3.047,1.364-3.047,3.046 C885.783,420.256,887.148,421.623,888.83,421.623z"/><path fill="#C1D5DB" d="M931.467,243.569h13.115v13.113c0,1.682,1.367,3.051,3.049,3.051c1.684,0,3.049-1.369,3.049-3.051v-13.113 h13.115c1.682,0,3.05-1.367,3.05-3.052c0-1.682-1.368-3.046-3.05-3.046H950.68v-13.118c0-1.682-1.365-3.048-3.049-3.048 c-1.682,0-3.049,1.366-3.049,3.048v13.118h-13.115c-1.682,0-3.047,1.364-3.047,3.046 C928.42,242.202,929.786,243.569,931.467,243.569z"/><path fill="#C1D5DB" d="M124.938,110.611h13.115v13.113c0,1.682,1.367,3.051,3.049,3.051c1.684,0,3.049-1.369,3.049-3.051v-13.113 h13.115c1.682,0,3.05-1.367,3.05-3.052c0-1.682-1.368-3.046-3.05-3.046h-13.115V91.396c0-1.682-1.365-3.048-3.049-3.048 c-1.682,0-3.049,1.366-3.049,3.048v13.118h-13.115c-1.682,0-3.047,1.364-3.047,3.046 C121.891,109.244,123.256,110.611,124.938,110.611z"/><path fill="#C1D5DB" d="M408.694,66.679h13.115v13.113c0,1.682,1.367,3.051,3.049,3.051c1.684,0,3.049-1.369,3.049-3.051V66.679 h13.115c1.682,0,3.05-1.367,3.05-3.052c0-1.682-1.368-3.046-3.05-3.046h-13.115V47.463c0-1.682-1.365-3.048-3.049-3.048 c-1.682,0-3.049,1.366-3.049,3.048v13.118h-13.115c-1.682,0-3.047,1.364-3.047,3.046C405.647,65.312,407.013,66.679,408.694,66.679 z"/><path fill="#FBEF53" d="M548.877,946.759v0.01c-11.833,6.221-24.237,9.316-36.745,10.134 c-42.139,2.764-85.456-20.419-112.021-38.188c0.409-1.158,0.76-2.204,1.055-3.144c4.15-13.392-31.892-139.876-44.495-183.288 c-2.65-9.099-4.265-14.55-4.265-14.55l-31.873,217.64c-12.888,1.187-30.343-2.518-49.129-8.662 c-38.72-12.669-83.082-35.662-104.708-47.448c4.777-47.647,9.621-96.112,13.563-117.376 c8.472-45.701,29.631-153.239,26.811-170.163c-0.513-3.049-0.979-7.57-1.387-12.927c-0.741-9.468-1.339-21.559-1.786-32.783 c29.186,19.27,89.36,51.939,157.845,48.502c32.091-1.596,65.997-11.121,99.408-33.668l25.244,50.602l32.12,64.401l27.191,54.505 c0,0,2.83,18.689,6.496,43.487c5.651,38.303,13.277,91.174,15.48,112.306C569.439,902.929,559.144,926.587,548.877,946.759z"/><path fill="#c5bd16" d="M548.877,946.759v0.01c-11.833,6.221-24.237,9.316-36.745,10.134c11.368-29.1,30.486-113.92,18.729-148.233 c-12.726-37.163-148.689-74.697-163.571-82.816c-4.501-2.451-8.016,0.389-10.618,6.43c-2.65-9.099-4.265-14.55-4.265-14.55 l-31.873,217.64c-12.888,1.187-30.343-2.518-49.129-8.662c-0.95-39.889,8.102-142.696,18.387-204.182 c7.835-46.84-50.877-107.234-84.108-143.732c-0.741-9.468-1.339-21.559-1.786-32.783c29.186,19.27,89.36,51.939,157.845,48.502 c58.047,53.08,145.489,135.241,190.458,179.327c5.651,38.303,13.277,91.174,15.48,112.306 C569.439,902.929,559.144,926.587,548.877,946.759z"/><path fill="#000000" d="M320.534,935.372l-13.941,95.162c0,0-0.75,18.34-34.903,36.982 c-34.152,18.653-180.315,8.168-177.495-17.228c2.821-25.405,50.792-33.868,57.848-52.596c3.77-10.02,9.155-63.68,14.654-118.432 C198.808,896.756,281.083,939.009,320.534,935.372z"/><path fill="#000000" d="M551.708,1053.47c-0.237,5.461-1.215,10.306-3.182,14.047c-11.283,21.474-101.583,8.168-128.394,0 c-26.811-8.158-47.98-32.756-47.98-59.558c0-25.253,21.292-70.545,27.959-89.245c34.447,23.049,97.082,55.198,148.766,28.055 c-1.045,2.052-2.089,4.074-3.115,6.041c-9.859,18.813-18.53,33.325-14.902,33.98C537.243,987.958,552.829,1027.601,551.708,1053.47 z"/><path fill="#000000" d="M507.611,488.716c-0.18,0.721-0.389,1.442-0.626,2.164c-0.009-14.112-2.061-30.096-3.105-34.722 c-1.7-7.521-13.097-35.644-18.672-41.94c-5.575-6.306-16.972-21.814-54.068-17.209c-37.087,4.607-35.634,26.669-36.118,27.391 c0,0-0.418,1.007-0.95,3.048c-4.255-0.739-7.74-1.044-8.994-0.379c-4.122,2.185-7.512,13.628,0,15.908 c1.615,0.483,3.97,0.788,6.696,1.12c-0.731,15.509,1.292,40.393,13.43,75.438c10.095,29.137,29.707,32.841,48.844,27.067 l7.104,14.245c-104.717,70.66-214.391,13.467-257.252-14.834c-0.703-17.561-1.054-33.004-1.054-33.004s-6.676,13.438-17.665,19.45 c-6.087,3.333-13.505,4.379-21.844-0.398c-33.449-27.021-30.648-46.385-19.222-80.337c0.674,0.151,1.263,0.293,1.747,0.427 c-0.826,5.071-0.36,8.624,1.596,9.602c0.865,0.428,1.957,0.323,3.21-0.237c-0.589,2.564-0.342,4.739,0.855,6.325 c1.443,1.909,4.093,2.726,7.55,2.564c-1.539,1.719-2.241,3.409-1.88,4.948c0.542,2.326,3.419,3.894,7.75,4.615 c-0.228,0.228-0.399,0.494-0.523,0.778c-1.472,3.485,5.309,9.679,15.148,13.848c9.839,4.17,19.004,4.721,20.485,1.234 c1.472-3.476-5.309-9.677-15.148-13.847c-2.051-0.864-4.065-1.576-5.993-2.127c2.317-0.305,4.73-0.741,7.189-1.321 c14.74-3.456,25.7-10.484,24.484-15.698c-1.102-4.691-11.682-6.325-24.531-4.074c0.75-0.532,1.5-1.083,2.25-1.652 c15.785-11.919,24.902-26.45,20.372-32.443c-4.53-6.002-20.999-1.196-36.783,10.732c-0.893,0.674-1.766,1.358-2.621,2.051 c0.057-0.104,0.114-0.218,0.171-0.332c7.854-15.746,10.751-30.239,6.458-32.376c-4.283-2.137-14.122,8.89-21.986,24.636 c-1.13,2.271-2.156,4.511-3.077,6.686c-0.361-0.123-0.75-0.256-1.187-0.398c4.397-12.736,9.288-27.399,13.685-44.789 c19.754-78.096,107.234-92.637,118.821-101.525c2.08-1.586,4.71-3.306,7.636-5.044c5.109,32.966,20.514,98.829,62.615,106.569 c46.983,8.623,68.143-61.542,78.562-102.694c20.4,6.079,40.591,13.591,49.338,21.341c11.568,10.267,20.942,56.309,25.719,99.826 C509.806,443.604,510.717,476.283,507.611,488.716z"/><path fill="#FAB9B9" d="M374.982,274.247c0,0,28.178,5.632,55.986,13.933c-10.418,41.152-31.578,111.317-78.562,102.694 c-42.102-7.74-57.506-73.604-62.615-106.569c13.419-7.987,32.984-16.563,32.984-16.563l-5.651-41.465 c-21.16-5.642-5.642-21.92-5.642-21.92s0-2.858,0.323-6.677c12.612,8.054,31.664,15.225,60.346,17.693 c34.912,3.001,54.941,1.472,43.649,1.852c-1.406,39.889-40.819,48.437-40.819,48.437V274.247z"/><path fill="#000000" d="M435.983,214.634c-10.846,2.82-28.919,3.741-63.831,0.74c-28.682-2.469-47.733-9.64-60.346-17.693 c0.123-1.377,0.285-2.878,0.503-4.416c-34.523-8.89-33.725-79.512,10.466-86.283c62.235-9.535,64.952,27.855,62.045,48.246 c0.94,0.152,1.89,0.313,2.859,0.504C428.328,163.595,435.214,208.355,435.983,214.634z"/><path fill="#FAB9B9" d="M147.238,454.183c-0.387,0-0.757-0.158-1.023-0.433c-0.113-0.044-0.329-0.117-0.726-0.224 c-0.76-0.205-1.209-0.987-1.004-1.746c0.205-0.761,0.986-1.212,1.747-1.005c1.109,0.3,2.052,0.621,2.357,1.53 c0.25,0.746-0.153,1.554-0.898,1.803C147.54,454.159,147.388,454.183,147.238,454.183z"/><path fill="#FAB9B9" d="M152.812,438.189c-0.175,0-0.353-0.032-0.525-0.101c-0.021-0.008-0.729-0.288-1.896-0.675 c-0.747-0.247-1.152-1.053-0.906-1.799c0.248-0.748,1.054-1.153,1.8-0.905c1.261,0.416,2.023,0.719,2.056,0.731 c0.73,0.29,1.087,1.118,0.796,1.85C153.914,437.849,153.378,438.189,152.812,438.189z"/><path fill="#FBEF53" d="M832.77,446.253c-1.083,2.65-22.85,26.716-47.989,53.546c0,0,0,0-0.01,0.009v0.01 c-33.525,35.805-73.024,76.538-77.365,77.982c-7.598,2.535-22.167,3.799-22.167,3.799s-56.233-45.957-50.668-55.056 c0.01-0.011,0.01-0.02,0.019-0.028l5.698-9.023l76.615-121.327c0,0-5.699-14.009,1.263-42.5 c6.961-28.492,17.731-42.415,36.726-48.75c16.792-5.604,38.037,1.14,59.805,17.01C824.811,369.724,834.764,441.361,832.77,446.253z"/><path fill="#c5bd16" d="M814.697,321.924c-21.768-15.87-43.013-22.613-59.805-17.01c-18.995,6.335-29.764,20.258-36.726,48.75 c-6.962,28.491-1.263,42.5-1.263,42.5l-76.615,121.327c-9.678,0.456-88.676,23.298-108.43-29.186c0-0.009-0.01-0.009,0-0.018 c-0.931-2.451-1.729-5.072-2.375-7.864c-6.315-27.153-4.596-57.962-0.532-84.45v-0.009c5.29-34.561,14.55-61.741,15.101-63.822 c2.099-7.854,8.528-60.858,11.444-85.361c27.608-17.38,54.752-32.642,65.73-39.385c2.507,11.957,10.666,39.214,31.892,30.324 c21.122-8.852,33.715-28.272,38.046-38.464c9.925,6.687,23.772,14.636,36.716,18.909c22.461,7.398,67.136,36.032,78.989,72.559 C809.34,298.352,812.018,309.312,814.697,321.924z"/><path fill="#FAB9B9" d="M691.166,199.257c-4.331,10.191-16.924,29.612-38.046,38.464c-21.226,8.89-29.384-18.367-31.892-30.324 c3.011-1.833,4.806-3.039,5.072-3.476c2.479-4.027,0.931-9.308,1.548-26.051c-38.454,4.957-43.735-27.914-43.735-27.914 s-0.095,0.02-0.285,0.059c1.055-5.52,2.327-12.404,2.612-14.864c0.513-4.368,10.257,2.042,19.745-5.394 c9.488-7.438,9.745-9.745,9.745-9.745s0,8.462,16.924,10.771c16.925,2.308,22.233-5.642,23.81-15.13c0,0,6.192-15.897,12.09-8.462 s-0.256,22.063-2.564,22.822c-1.975,0.655,7.513,28.758,9.137,44.229c-0.228-0.589-0.256-0.997-0.256-0.997 s-0.076,3.628,0.333,7.475c0.313,3.029,0.94,6.192,2.137,7.825C678.687,190.111,683.872,194.347,691.166,199.257z"/><path fill="#000000" d="M725.175,166.083c-41.36,19.954-48.598,11.387-49.842,8.177c0-0.009-0.009-0.009-0.009-0.019 c-1.624-15.471-11.112-43.573-9.137-44.229c2.308-0.76,8.462-15.387,2.564-22.822s-12.09,8.462-12.09,8.462 c-1.577,9.488-6.885,17.438-23.81,15.13c-16.924-2.309-16.924-10.771-16.924-10.771s-0.256,2.308-9.745,9.745 c-9.487,7.436-19.232,1.025-19.745,5.394c-0.285,2.46-1.557,9.345-2.612,14.864c-3.685,0.712-42.31,7.217-52.406-31.313 c-10.618-40.478,24.189-62.938,31.094-63.926c6.914-0.988,27.399-9.384,45.91,5.916c6.667-16.781,31.598-6.657,31.351,7.161 c0,0,39.983-30.609,72.806-19.992C745.414,58.479,774.286,142.396,725.175,166.083z"/><path fill="#FBEF53" d="M555.497,246.781c-2.916,24.503-9.346,77.508-11.444,85.361c-0.551,2.081-9.811,29.262-15.101,63.822v0.009 c-4.92-1.319-16.601,7.932-22.927,13.373c-4.777-43.518-14.15-89.56-25.719-99.826 C485.426,293.736,520.832,268.597,555.497,246.781z"/><path fill="#FAB9B9" d="M506.985,490.88c0.009,8.785-0.779,16.849-3.105,21.037c-3.353,6.03-26.231,27.57-49.833,34.685 c-19.137,5.773-38.749,2.069-48.844-27.067c-12.138-35.045-14.161-59.929-13.43-75.438c9.962,1.207,24.912,2.735,27,14.73 c2.669,15.271,0.485,40.972,8.006,46.062c7.513,5.091,12.119-0.693,14.303-6.771c4.844,7.74-1.938,16.953,4.359,20.353 c6.307,3.391,10.675-1.699,12.613-9.696c1.938-8.007,4.122,7.027,7.512,7.512c3.4,0.485,6.791-36.128-2.422-48.246 c0.484-10.428,1.453-17.456-9.697-19.155c-3.324-1.103-4.274-0.352-4.53,0.304c0.2-3.03,0.047-15.356-15.832-16.003 c-16.098-0.664-15.842-0.143-15.585-0.028c-1.026-0.295-14.075-4.065-23.43-5.709c0.532-2.041,0.95-3.048,0.95-3.048 c0.484-0.722-0.969-22.783,36.118-27.391c37.096-4.605,48.493,10.903,54.068,17.209c5.575,6.297,16.972,34.419,18.672,41.94 C504.924,460.784,506.976,476.768,506.985,490.88z"/><path fill="#FAB9B9" d="M685.239,581.599c0,0-24.057,35.843-31.654,35.017c-7.598-0.827-44.324-14.75-46.85-9.688 c-2.536,5.062-13.933,23.43-20.894,22.157c-6.971-1.264,0.627-32.918,9.497-46.851c8.719-13.714,38.312-54.419,39.233-55.691 C629.006,535.642,685.239,581.599,685.239,581.599z"/><path fill="#000000" d="M821.402,678.642l-197.705,23.619c-1.548-7.826-2.403-12.394-2.403-12.394s-0.522,4.616-1.386,12.289 L518.515,675.85l-32.12-64.401c10.523-40.268,45.9-121.328,45.463-123.143c19.754,52.483,98.752,29.642,108.43,29.186l-5.698,9.023 c-0.009,0.009-0.009,0.018-0.019,0.028c-0.921,1.272-30.515,41.978-39.233,55.691c-8.87,13.933-16.468,45.587-9.497,46.851 c6.961,1.272,18.358-17.096,20.894-22.157c2.526-5.063,39.252,8.86,46.85,9.688c7.598,0.826,31.654-35.017,31.654-35.017 s14.569-1.264,22.167-3.799c4.34-1.444,43.839-42.178,77.365-77.982C783.28,502.021,805.446,605.493,821.402,678.642z"/><path fill="#C1D5DB" d="M621.294,1046.965c-1.063,7.445-52.957,7.427-69.586,6.505c1.121-25.869-14.464-65.512-20.847-66.68 c-3.628-0.655,5.043-15.167,14.902-33.98c0,0,44.912,1.348,67.819,0.787C617.799,999.402,621.921,1042.615,621.294,1046.965z"/><path fill="#C1D5DB" d="M902.414,1106.484c-68.38,14.245-160.504,0-173.8-9.497c-13.296-9.498,0.95-34.19,0-56.984 c-0.665-15.993-5.537-53.488-19.764-90.67c36.194,6.126,130.616,15.139,170.457-20.191c0.104,0.465,0.209,0.931,0.313,1.396 c29.441,130.815,53.419,93.598,80.012,123.354C986.225,1083.637,970.794,1092.238,902.414,1106.484z"/><path fill="#FAB9B9" d="M879.307,929.142c-39.841,35.33-134.263,26.317-170.457,20.191c-6.05-15.813-31.755-63.693-44.818-101.175 c-15.758-45.217-32.414-106.322-40.325-145.868c0-0.01,0-0.02-0.01-0.029l197.705-23.619c7.864,36.108,14.227,64.818,15.48,70.326 C840.672,765.599,850.112,799.476,879.307,929.142z"/><path fill="#FAB9B9" d="M605.462,843.333c-0.636,12.679,3.742,62.331,8.053,109.477c0.028,0.256,0.047,0.521,0.066,0.777v0.01 c-22.907,0.561-67.819-0.787-67.819-0.787c1.025-1.967,2.07-3.989,3.115-6.041v-0.01c10.267-20.172,20.562-43.83,18.804-60.611 c-3.627-34.808-21.976-155.793-21.976-155.793l-27.191-54.505l101.393,26.307v0.038 C616.242,734.941,606.497,823.02,605.462,843.333z"/><path fill="#454E53" d="M519.75,661.219c-37.317-7.323-45.44,29.581-41.682,43.242c-11.376-2.539-25.41,3.579-36.886,15.687 c-8.718,9.214-15.959,21.869-19.447,36.834L99.185,407.448c0,0,0.087-0.468,0.268-1.359c0.577-2.698,2.166-9.24,5.551-18.343 c4.174-11.19,11.073-26.239,22.221-42.714c19.091-28.262,50.647-60.739,102.205-85.222c2.677-1.278,5.408-2.526,8.199-3.757 l9.536,10.52l328.897,362.548C560.993,627.894,529.423,629.374,519.75,661.219z"/><path fill="#454E53" d="M572.633,777.214l-67.06-7.027c6.737-52.303,56.483-59.496,71.085-60.475L572.633,777.214z"/><path fill="#FAB9B9" d="M505.574,770.187l-79.325-8.318l-4.509-4.884c8.074-34.646,36.304-56.995,56.333-52.521 c-3.759-13.659,4.365-50.565,41.679-43.243c9.677-31.844,41.246-33.325,56.314-32.097c0,0,0,0,0.011,0.006l5.042,5.574 l-4.46,75.009C562.057,710.69,512.311,717.884,505.574,770.187z"/><path fill="#FAB9B9" d="M247.187,266.556l-0.023,0.018l-9.536-10.52c-2.791,1.23-5.522,2.479-8.199,3.757 c-81.638,38.778-113.109,97.567-124.425,127.936c-3.385,9.103-4.974,15.645-5.551,18.343l-27.321-30.913 c-24.177-24.469-11.25-76.444,28.878-116.088c37.068-36.64,84.385-49.911,110.431-32.427L247.187,266.556z"/><path fill="#FAB9B9" d="M182.769,483.404c-2.459,0.58-4.872,1.017-7.189,1.321c1.928,0.551,3.941,1.263,5.993,2.127 c9.839,4.169,16.62,10.371,15.148,13.847c-1.482,3.486-10.646,2.936-20.486-1.234c-9.839-4.169-16.62-10.362-15.148-13.848 c0.124-0.284,0.294-0.551,0.522-0.778c-4.331-0.722-7.208-2.289-7.75-4.615c-0.361-1.539,0.342-3.229,1.88-4.948 c-3.457,0.161-6.106-0.655-7.55-2.564c-1.196-1.586-1.444-3.761-0.855-6.325c-1.253,0.561-2.345,0.665-3.21,0.237 c-1.956-0.978-2.422-4.53-1.596-9.602c-0.484-0.134-1.073-0.275-1.747-0.427c-6.591-1.492-21.065-4.274-18.206-13.021 c2.801-8.585,17.256-5.091,23.743-3.039c0.437,0.143,0.826,0.275,1.187,0.398c0.921-2.175,1.947-4.415,3.077-6.686 c7.864-15.747,17.703-26.772,21.986-24.636c4.293,2.137,1.396,16.63-6.458,32.376c-0.057,0.114-0.114,0.229-0.171,0.332 c0.855-0.692,1.729-1.377,2.621-2.051c15.785-11.929,32.253-16.734,36.783-10.732c4.53,5.993-4.587,20.524-20.372,32.443 c-0.75,0.569-1.5,1.12-2.25,1.652c12.85-2.251,23.43-0.617,24.531,4.074C208.468,472.919,197.508,479.948,182.769,483.404z"/><path fill="#FAB9B9" d="M465.567,516.285c-3.391-0.484-5.575-15.519-7.512-7.512c-1.938,7.997-6.306,13.087-12.613,9.696 c-6.296-3.399,0.485-12.612-4.359-20.353c-2.184,6.078-6.791,11.862-14.303,6.771c-7.521-5.09-5.337-30.79-8.006-46.062 c-2.089-11.995-17.038-13.523-27-14.73c-2.726-0.332-5.081-0.637-6.696-1.12c-7.512-2.28-4.122-13.724,0-15.908 c1.254-0.665,4.739-0.36,8.994,0.379c9.355,1.644,22.404,5.414,23.43,5.709c-0.256-0.114-0.513-0.636,15.585,0.028 c15.879,0.646,16.031,12.973,15.832,16.003c0.256-0.655,1.207-1.406,4.53-0.304c11.15,1.699,10.181,8.728,9.697,19.155 C472.358,480.157,468.967,516.771,465.567,516.285z"/><path fill="#000000" d="M517.903,667.092c-0.407,0-0.812-0.174-1.094-0.511L206.252,295.556c-0.505-0.604-0.425-1.502,0.178-2.008 c0.604-0.506,1.501-0.426,2.007,0.179l310.557,371.026c0.505,0.604,0.425,1.501-0.178,2.007 C518.55,666.983,518.225,667.092,517.903,667.092z"/><path fill="#000000" d="M477.303,700.938c-0.388,0-0.774-0.158-1.055-0.468L152.513,343.616c-0.528-0.582-0.485-1.483,0.098-2.012 c0.583-0.528,1.484-0.484,2.013,0.098l323.734,356.854c0.529,0.583,0.485,1.484-0.098,2.013 C477.987,700.816,477.644,700.938,477.303,700.938z"/><path fill="#000000" d="M394.995,247.372c-4.289,0-10.231-3.204-10.302-3.247c-0.675-0.404-0.894-1.28-0.489-1.954 s1.281-0.896,1.954-0.488c2.199,1.318,8.501,3.659,10.044,2.619c0.227-0.152,0.291-0.548,0.192-1.176 c-1.037-6.564,3.189-23.715,3.369-24.442c0.189-0.763,0.961-1.229,1.726-1.04c0.763,0.19,1.229,0.963,1.04,1.727 c-0.043,0.173-4.268,17.314-3.321,23.311c0.358,2.264-0.571,3.416-1.413,3.982C397.047,247.17,396.073,247.372,394.995,247.372z"/><path fill="#000000" d="M371.38,267.316c-7.755,0-25.813-2.56-41.62-23.899c-0.468-0.632-0.335-1.524,0.297-1.992 c0.631-0.47,1.524-0.336,1.993,0.297c19.267,26.012,42.466,22.573,42.701,22.534c0.775-0.121,1.507,0.399,1.635,1.175 c0.128,0.775-0.395,1.508-1.17,1.637C374.99,267.104,373.611,267.316,371.38,267.316z"/><path fill="#000000" d="M317.525,216.566c-0.639,0-1.22-0.431-1.381-1.079c-0.581-2.324-1.467-3.812-2.495-4.189 c-0.97-0.358-1.975,0.313-1.984,0.32c-0.642,0.455-1.53,0.309-1.988-0.331c-0.457-0.641-0.309-1.53,0.332-1.987 c0.816-0.582,2.708-1.381,4.625-0.676c1.996,0.735,3.433,2.812,4.274,6.172c0.191,0.764-0.273,1.537-1.037,1.728 C317.756,216.553,317.639,216.566,317.525,216.566z"/><path fill="#000000" d="M441.083,499.542c-0.352,0-0.705-0.131-0.98-0.392c-0.571-0.541-0.595-1.443-0.053-2.014 c0.047-0.068,2.375-3.216,5.178-20.655c3.044-18.941,2.122-34.196-2.349-38.865c-4.378-4.568-21.927-3.453-25.2-3.047 c-2.464,0.313-18.987-4.324-23.997-5.752c-0.757-0.215-1.195-1.004-0.98-1.76c0.216-0.758,1.003-1.191,1.761-0.98 c10.071,2.869,21.394,5.793,22.875,5.664c0.2-0.025,21.581-2.379,27.598,3.905c5.223,5.452,6.384,20.888,3.104,41.288 c-2.932,18.241-5.448,21.662-5.923,22.163C441.837,499.393,441.46,499.542,441.083,499.542z"/><path fill="#000000" d="M459.05,507.942c-0.178,0-0.359-0.033-0.535-0.104c-0.729-0.296-1.081-1.127-0.785-1.855 c3.565-8.797,6.005-44.834,3.435-50.738c-2.447-5.62-11.996-4.651-12.093-4.642c-0.778,0.085-1.485-0.48-1.57-1.262 c-0.085-0.783,0.48-1.486,1.263-1.57c0.478-0.054,11.738-1.183,15.012,6.337c3.117,7.159,0.196,44.057-3.406,52.945 C460.146,507.606,459.613,507.942,459.05,507.942z"/><path fill="#000000" d="M466.917,516.013c-0.185,0-0.372-0.035-0.553-0.111c-0.725-0.307-1.065-1.141-0.759-1.866 c7.265-17.248-3.139-44.438-3.245-44.712c-0.285-0.732,0.079-1.558,0.812-1.844c0.735-0.283,1.559,0.079,1.844,0.813 c0.45,1.157,10.923,28.549,3.215,46.849C468.001,515.685,467.472,516.013,466.917,516.013z"/><path fill="#000000" d="M142.529,458.446c-0.111,0-0.225-0.013-0.338-0.041c-0.765-0.186-1.233-0.957-1.046-1.721 c0.316-1.295,7.909-31.866,22.658-45.643c0.575-0.536,1.477-0.506,2.014,0.069c0.537,0.574,0.506,1.476-0.069,2.014 c-14.133,13.2-21.759,43.926-21.835,44.234C143.754,458.011,143.171,458.446,142.529,458.446z"/><path fill="#000000" d="M147.333,467.81c-0.2,0-0.403-0.041-0.596-0.13c-0.714-0.329-1.027-1.177-0.697-1.891 c0.499-1.082,12.531-26.619,40.014-37.322c0.733-0.289,1.56,0.077,1.845,0.811s-0.078,1.559-0.811,1.844 c-26.421,10.29-38.343,35.606-38.46,35.86C148.388,467.503,147.872,467.81,147.333,467.81z"/><path fill="#000000" d="M155.741,476.7c-0.446,0-0.884-0.209-1.163-0.6c-0.455-0.641-0.306-1.53,0.336-1.986 c0.606-0.432,15.004-10.582,28.744-12.739c0.774-0.118,1.506,0.408,1.628,1.187c0.122,0.777-0.409,1.506-1.187,1.628 c-13.068,2.052-27.391,12.146-27.534,12.247C156.314,476.614,156.026,476.7,155.741,476.7z"/><path fill="#000000" d="M183.877,489.325c-0.271,0-0.546-0.076-0.789-0.239c-9.558-6.379-20.938-2.922-21.053-2.887 c-0.75,0.236-1.55-0.184-1.786-0.935c-0.235-0.751,0.184-1.549,0.934-1.785c0.519-0.161,12.808-3.888,23.486,3.236 c0.654,0.437,0.831,1.321,0.395,1.977C184.789,489.103,184.337,489.325,183.877,489.325z"/><path fill="#000000" d="M375.393,238.517c-13.165,0-23.875-11.113-23.875-24.775c0-13.661,10.71-24.775,23.875-24.775 s23.875,11.114,23.875,24.775C399.268,227.403,388.558,238.517,375.393,238.517z M375.393,191.815 c-11.593,0-21.025,9.836-21.025,21.926c0,12.091,9.432,21.927,21.025,21.927s21.025-9.836,21.025-21.927 C396.418,201.651,386.986,191.815,375.393,191.815z"/><path fill="#000000" d="M416.41,240.881c-1.117,0-2.234-0.125-3.321-0.371c-4.957-1.122-9.034-4.641-11.481-9.908 c-2.389-5.142-2.938-11.362-1.544-17.515c2.56-11.304,11.074-19.507,20.246-19.507c1.117,0,2.234,0.124,3.323,0.371 c4.956,1.122,9.033,4.64,11.48,9.907c2.389,5.142,2.938,11.362,1.544,17.516C434.097,232.677,425.582,240.881,416.41,240.881z M420.31,196.429c-7.853,0-15.199,7.271-17.467,17.287c-1.255,5.542-0.776,11.111,1.349,15.686c2.067,4.448,5.45,7.407,9.526,8.33 c0.881,0.199,1.787,0.301,2.692,0.301c7.853,0,15.199-7.271,17.468-17.287c1.255-5.542,0.776-11.113-1.349-15.687 c-2.067-4.448-5.45-7.406-9.525-8.329C422.121,196.53,421.215,196.429,420.31,196.429z"/><path fill="#000000" d="M598.596,169.008c-0.658,0-1.284-0.082-1.859-0.267c-1.381-0.442-2.386-1.422-2.906-2.833 c-2.3-6.237-0.174-28.872-0.082-29.833c0.075-0.783,0.766-1.355,1.554-1.283c0.783,0.076,1.357,0.771,1.283,1.554 c-0.607,6.364-1.805,23.903-0.082,28.577c0.217,0.59,0.557,0.931,1.102,1.105c2.553,0.813,8.246-2.089,11.234-4.117 c0.652-0.441,1.537-0.272,1.979,0.378c0.442,0.651,0.273,1.537-0.377,1.979C609.645,164.81,603.312,169.008,598.596,169.008z"/><path fill="#000000" d="M663.916,124.972c-0.552,0-1.076-0.321-1.309-0.859c-4.529-10.474,2.45-15.867,2.521-15.92 c0.63-0.471,1.522-0.345,1.995,0.286c0.47,0.627,0.345,1.516-0.279,1.988c-0.23,0.179-5.225,4.181-1.621,12.515 c0.312,0.723-0.02,1.561-0.742,1.873C664.296,124.935,664.104,124.972,663.916,124.972z"/><path fill="#000000" d="M529.649,393.025c-0.017,0-0.035,0-0.052-0.001c-0.787-0.027-1.401-0.688-1.373-1.475 c0.173-4.803,12.687-54.045,14.774-61.16c1.917-6.531,10.255-76.837,10.339-77.546c0.093-0.781,0.81-1.351,1.583-1.247 c0.781,0.092,1.34,0.801,1.247,1.582c-0.344,2.906-8.451,71.255-10.435,78.015c-2.182,7.434-14.51,56.248-14.662,60.459 C531.044,392.421,530.413,393.025,529.649,393.025z"/><path fill="#000000" d="M634.183,529.482c-0.25,0-0.503-0.066-0.733-0.204c-0.674-0.406-0.892-1.282-0.485-1.956 c7.634-12.673,74.753-123.937,80.677-128.497c0.951-0.732,1.551-1.346,2.053-1.892c-1.236-1.665-3.512-8.814,0.123-39.328 c6.862-45.874,39.991-54.483,40.325-54.564c0.767-0.186,1.535,0.282,1.722,1.045c0.187,0.765-0.281,1.534-1.043,1.723l0,0 c-0.315,0.077-31.619,8.314-38.18,52.177c-3.486,29.27-1.341,35.885-0.798,37.022c2.323-1.323,6.396-1.165,21.113-0.262 c6.924,0.425,11.222,2.78,12.776,7.003c2.457,6.676-3.078,15.374-7.144,19.288c-2.445,2.354-4.466,3.232-6.003,2.596 c-3.967-1.632-16.157-17.636-21.165-24.374c-0.503,0.523-1.15,1.141-2.039,1.824c-4.159,3.202-50.106,78.129-79.975,127.71 C635.137,529.236,634.666,529.482,634.183,529.482z M719.566,397.372c6.923,9.313,17.378,22.506,20.101,23.627 c0.007,0,0.014,0,0.021,0c0.705,0,3.446-1.942,6.095-5.827c2.644-3.881,4.829-9.334,3.031-13.003 c-1.329-2.711-4.705-4.252-10.035-4.579C725.198,396.757,721.32,396.653,719.566,397.372z"/><path fill="#000000" d="M821.4,1055.315c-0.279,0-0.563-0.082-0.81-0.254c-18.849-13.063-7.781-84.43-7.301-87.46 c0.124-0.778,0.854-1.306,1.63-1.185c0.776,0.123,1.307,0.853,1.184,1.629c-0.114,0.726-11.279,72.622,6.11,84.675 c0.646,0.448,0.807,1.335,0.359,1.981C822.296,1055.102,821.852,1055.315,821.4,1055.315z"/><path fill="#000000" d="M774.831,1028.304c-5.93,0-10.947-2.187-14.509-6.321c-4.566-5.302-6.543-13.76-5.331-22.714 c-0.386-0.668-0.827-1.814-0.274-3.004c0.961-2.07,4.012-2.31,6.223-2.31c8.338,0,25.566,4.167,51.207,12.381 c3.518-2.669,7.094-5.454,10.559-8.153c15.118-11.775,28.174-21.945,34.999-21.945c1.03,0,1.935,0.225,2.691,0.668 c5.472,3.203,16.453,19.961,13.285,31.641c-1.313,4.84-5.675,10.608-19.003,10.608c-8.512,0-19.858-2.336-33.725-6.944 c-2.88-0.957-5.634-1.859-8.268-2.709c-9.228,6.96-19.628,14.313-27.586,16.968 C781.449,1027.687,777.995,1028.304,774.831,1028.304z M760.939,996.805c-3.118,0-3.638,0.66-3.643,0.667 c0,0.094,0.178,0.43,0.271,0.539c0.265,0.313,0.381,0.725,0.32,1.13c-1.25,8.348,0.467,16.19,4.594,20.982 c3.047,3.537,7.202,5.331,12.35,5.331c2.856,0,6.007-0.567,9.365-1.688c7.136-2.381,16.916-9.174,25.161-15.33 C779.17,998.85,766.366,996.805,760.939,996.805z M815.45,1007.401c2.063,0.67,4.195,1.371,6.401,2.104 c13.577,4.514,24.621,6.801,32.827,6.801c9.253,0,14.722-2.861,16.253-8.506c2.737-10.091-7.321-25.711-11.975-28.437 c-0.314-0.185-0.735-0.277-1.252-0.277c-5.846,0-19.776,10.851-33.248,21.344C821.501,1002.731,818.466,1005.097,815.45,1007.401z"/><path fill="#FFF" d="M298.388,921.968c-0.108,0-0.217-0.012-0.328-0.038c-0.766-0.18-1.241-0.946-1.061-1.712 c0.346-1.473,34.573-147.6,32.483-181.189c-0.049-0.785,0.548-1.461,1.333-1.511c0.782-0.06,1.462,0.548,1.511,1.334 c2.116,34.009-31.137,175.991-32.553,182.018C299.619,921.525,299.034,921.968,298.388,921.968z"/><path fill="#FFF" d="M410.454,920.138c-0.613,0-1.18-0.398-1.364-1.016c-0.226-0.754,0.203-1.547,0.957-1.773 c0.379-0.119,9.498-3.146,10.27-18.772c0.814-16.468-46.2-147.798-46.675-149.123c-0.265-0.739,0.12-1.556,0.86-1.821 c0.741-0.265,1.556,0.119,1.822,0.86c1.947,5.431,47.681,133.195,46.839,150.226c-0.877,17.743-11.833,21.221-12.299,21.361 C410.727,920.118,410.589,920.138,410.454,920.138z"/><path fill="#FFF" d="M298.386,986.344c-0.337,0-0.675-0.119-0.947-0.36l-13.296-11.85c-0.285-0.254-0.456-0.611-0.475-0.994 c-0.019-0.381,0.116-0.754,0.375-1.035c1.605-1.741,14.618-15.796,19.97-19.729c-3.274-1.286-11.624-3.15-15.101-3.926 c-2.063-0.461-3.555-0.793-4.223-0.989c-0.755-0.223-1.187-1.014-0.965-1.77c0.222-0.755,1.015-1.182,1.768-0.965 c0.578,0.17,2.183,0.528,4.041,0.943c15.564,3.473,18.115,4.616,18.31,6.506c0.032,0.303,0.033,1.339-1.27,1.929 c-2.451,1.11-12.822,11.736-19.451,18.87l12.213,10.882c0.587,0.523,0.639,1.425,0.116,2.012 C299.169,986.183,298.779,986.344,298.386,986.344z"/><path fill="#FFF" d="M215.18,1070.861c-32.892,0-69.513-8.028-94.561-14.805c-1.416-0.383-2.639-0.714-2.879-0.755 c-0.764-0.13-1.304-0.85-1.19-1.615c0.113-0.767,0.804-1.297,1.566-1.209c0.33,0.042,0.994,0.219,3.247,0.828 c42.506,11.5,118.7,26.727,151.42-0.51c0.605-0.502,1.503-0.421,2.006,0.184s0.421,1.504-0.184,2.007 C260.513,1066.715,238.807,1070.861,215.18,1070.861z"/><path fill="#FFF" d="M404.164,969.249c-0.42,0-0.836-0.186-1.118-0.54l-10.091-12.742c-0.273-0.345-0.372-0.798-0.267-1.225 c0.105-0.427,0.402-0.782,0.804-0.961l18.397-8.195c-2.566-2.857-8.327-9.223-11.746-12.613c-0.559-0.555-0.563-1.456-0.008-2.016 c0.554-0.558,1.456-0.562,2.014-0.009c4.539,4.502,13.083,14.101,13.168,14.197c0.302,0.34,0.424,0.803,0.328,1.247 c-0.096,0.444-0.398,0.816-0.813,1.001l-18.505,8.243l8.951,11.303c0.489,0.616,0.385,1.513-0.232,2.001 C404.786,969.148,404.474,969.249,404.164,969.249z"/><path fill="#FFF" d="M488.557,1071.601c-28.472,0-53.386-10.614-70.132-20.249c-20.83-11.983-33.883-25.103-34.012-25.233 c-0.553-0.561-0.546-1.462,0.013-2.015c0.559-0.552,1.461-0.546,2.014,0.013c0.508,0.514,51.499,51.325,114.824,43.898 c0.782-0.091,1.488,0.469,1.58,1.249c0.092,0.782-0.468,1.489-1.249,1.581C497.179,1071.362,492.827,1071.601,488.557,1071.601z"/><path fill="#FAB9B9" d="M634.182,682.674c-0.708,0-1.322-0.527-1.412-1.248c-0.097-0.781,0.458-1.493,1.238-1.59 c43.354-5.393,157.528-20.365,165.11-24.842c0.678-0.396,1.551-0.173,1.951,0.503c0.4,0.678,0.175,1.551-0.502,1.951 c-9.642,5.691-159.819,24.421-166.208,25.215C634.3,682.67,634.241,682.674,634.182,682.674z"/><path fill="#FAB9B9" d="M806.491,667.092c-0.002,0-0.004,0-0.007,0c-0.787-0.004-1.422-0.646-1.418-1.432 c0.063-13.653-22.025-79.658-24.412-86.746l-11.748-4.86c-0.6-0.248-0.957-0.871-0.866-1.514l5.698-40.674 c0.109-0.779,0.832-1.321,1.608-1.213c0.779,0.109,1.322,0.829,1.213,1.608l-5.545,39.581l11.328,4.688 c0.379,0.156,0.672,0.47,0.804,0.858c1.014,2.992,24.837,73.452,24.769,88.284C807.912,666.458,807.274,667.092,806.491,667.092z"/><path fill="#FAB9B9" d="M747.989,592.931c-6.778,0-11.947-1.604-15.424-4.799c-4.792-4.405-4.441-10.145-4.423-10.388 c0.056-0.784,0.726-1.383,1.522-1.319c0.783,0.056,1.373,0.734,1.32,1.518c-0.013,0.203-0.239,4.679,3.547,8.125 c4.117,3.749,11.63,4.892,21.727,3.308c0.778-0.124,1.507,0.408,1.629,1.187c0.122,0.777-0.409,1.506-1.187,1.628 C753.552,592.684,750.646,592.931,747.989,592.931z"/><path fill="#c5bd16" d="M371.934,254.569c5.75,0.293,21.183-6.177,16.643,0.921c-3.252,3.807-0.165,4.057-4.095,4.432 C380.533,260.3,371.748,257.434,371.934,254.569"/><path fill="#FFF" d="M414.252,198.884c-0.661,0-1.254-0.461-1.394-1.135c-3.941-18.977-27.976-35.059-28.218-35.219 c-0.657-0.434-0.837-1.318-0.403-1.974c0.433-0.657,1.318-0.839,1.974-0.402c1.03,0.681,25.259,16.901,29.437,37.016 c0.16,0.771-0.335,1.524-1.105,1.685C414.445,198.875,414.348,198.884,414.252,198.884z"/><path fill="#FFF" d="M401.168,203.761c0,0-0.001,0-0.001,0c-0.788-0.001-1.424-0.64-1.423-1.426 c0.021-15.987-9.101-27.05-9.193-27.16c-0.505-0.603-0.427-1.501,0.176-2.006c0.603-0.506,1.501-0.426,2.007,0.176 c0.403,0.481,9.881,11.979,9.859,28.993C402.592,203.124,401.954,203.761,401.168,203.761z"/><path fill="#FFF" d="M306.59,172.929c-0.321,0-0.643-0.107-0.91-0.328c-4.71-3.913-7.22-8.833-7.459-14.622 c-0.686-16.62,17.532-34.688,18.307-35.449c0.563-0.55,1.464-0.54,2.014,0.02c0.551,0.563,0.542,1.464-0.019,2.015 c-0.181,0.178-18.093,17.949-17.456,33.302c0.206,4.948,2.37,9.169,6.433,12.543c0.605,0.503,0.688,1.401,0.186,2.006 C307.405,172.754,306.999,172.929,306.59,172.929z"/><path fill="#FFF" d="M315.434,169.066c-0.268,0-0.538-0.075-0.779-0.233c-4.175-2.735-6.538-6.207-7.022-10.319 c-0.999-8.481,6.449-16.489,6.767-16.825c0.54-0.57,1.439-0.598,2.013-0.06c0.572,0.539,0.6,1.44,0.062,2.014 c-0.069,0.073-6.86,7.394-6.01,14.546c0.384,3.232,2.32,6.012,5.753,8.262c0.658,0.431,0.842,1.313,0.411,1.973 C316.354,168.84,315.898,169.066,315.434,169.066z"/><path fill="#C1D5DB" d="M1022.77,1101.225h-6.215v-7.598h6.215c1.528,0,3.061-0.122,4.554-0.362l1.206,7.502 C1026.639,1101.07,1024.701,1101.225,1022.77,1101.225z M1005.159,1101.225h-11.396v-7.598h11.396V1101.225z M982.368,1101.225 h-11.396v-7.598h11.396V1101.225z M959.577,1101.225h-11.396v-7.598h11.396V1101.225z M936.786,1101.225h-11.395v-7.598h11.395 V1101.225z M913.995,1101.225h-11.396v-7.598h11.396V1101.225z M891.204,1101.225h-11.396v-7.598h11.396V1101.225z M868.413,1101.225h-11.396v-7.598h11.396V1101.225z M845.622,1101.225h-11.395v-7.598h11.395V1101.225z M822.831,1101.225h-11.396 v-7.598h11.396V1101.225z M800.04,1101.225h-11.396v-7.598h11.396V1101.225z M777.249,1101.225h-11.396v-7.598h11.396V1101.225z M754.458,1101.225h-11.395v-7.598h11.395V1101.225z M731.667,1101.225h-11.396v-7.598h11.396V1101.225z M708.875,1101.225H697.48 v-7.598h11.396V1101.225z M686.085,1101.225h-11.396v-7.598h11.396V1101.225z M663.293,1101.225h-11.396v-7.598h11.396V1101.225z M640.502,1101.225h-11.396v-7.598h11.396V1101.225z M617.711,1101.225h-11.396v-7.598h11.396V1101.225z M593.923,1099.512 c-4.058-1.3-7.826-3.294-11.197-5.928l4.677-5.987c2.663,2.08,5.636,3.654,8.837,4.679L593.923,1099.512z M1040.491,1096.581 l-3.734-6.616c2.931-1.654,5.528-3.797,7.719-6.367l5.783,4.929C1047.487,1091.777,1044.202,1094.487,1040.491,1096.581z M574.262,1084.167c-2.259-3.632-3.838-7.592-4.693-11.771l7.443-1.524c0.675,3.296,1.92,6.418,3.702,9.283L574.262,1084.167z M1056.66,1077.595l-7.13-2.625c1.159-3.146,1.747-6.462,1.747-9.85v-0.127h7.598v0.127 C1058.874,1069.407,1058.129,1073.604,1056.66,1077.595z M576.432,1060.285h-7.598v-11.396h7.598V1060.285z M1058.874,1053.597 h-7.598v-11.395h7.598V1053.597z M576.432,1037.493h-7.598v-11.395h7.598V1037.493z M1058.874,1030.807h-7.598v-11.396h7.598 V1030.807z M576.432,1014.703h-7.598v-11.396h7.598V1014.703z M1058.874,1008.016h-7.598V996.62h7.598V1008.016z M576.432,991.911 h-7.598v-11.395h7.598V991.911z M1058.874,985.224h-7.598v-11.396h7.598V985.224z M576.432,969.12h-7.598v-11.396h7.598V969.12z M1058.874,962.434h-7.598v-11.396h7.598V962.434z M576.432,946.33h-7.598v-11.396h7.598V946.33z M1058.874,939.642h-7.598v-11.395 h7.598V939.642z M576.432,923.538h-7.598v-11.395h7.598V923.538z M1058.874,916.851h-7.598v-11.396h7.598V916.851z M576.432,900.747h-7.598v-11.396h7.598V900.747z M1058.874,894.061h-7.598v-11.396h7.598V894.061z M576.432,877.957h-7.598 v-11.396h7.598V877.957z M1058.874,871.269h-7.598v-11.395h7.598V871.269z M576.432,855.165h-7.598V843.77h7.598V855.165z M1058.874,848.479h-7.598v-11.396h7.598V848.479z M576.432,832.374h-7.598v-11.396h7.598V832.374z M1058.874,825.687h-7.598 v-11.395h7.598V825.687z M568.834,809.583v-0.063c0-4.264,0.737-8.438,2.19-12.409l7.135,2.612 c-1.146,3.131-1.727,6.427-1.727,9.797L568.834,809.583z M1050.686,803.714c-0.682-3.293-1.933-6.414-3.721-9.275l6.444-4.025 c2.266,3.627,3.853,7.584,4.717,11.762L1050.686,803.714z M583.196,791.084l-5.793-4.918c2.765-3.256,6.046-5.974,9.753-8.074 l3.746,6.61C587.974,786.362,585.381,788.508,583.196,791.084z M1040.261,787.008c-2.667-2.075-5.643-3.644-8.846-4.661l2.302-7.24 c4.062,1.29,7.833,3.277,11.21,5.905L1040.261,787.008z M600.329,781.384l-1.22-7.5c1.911-0.311,3.867-0.469,5.813-0.469 c0.006,0,0.013,0,0.019,0h6.149v7.598h-6.151c-0.005,0-0.01,0-0.015,0C603.383,781.013,601.838,781.138,600.329,781.384z M1021.329,781.013h-11.395v-7.598h11.395V781.013z M998.538,781.013h-11.396v-7.598h11.396V781.013z M975.747,781.013h-11.396 v-7.598h11.396V781.013z M952.956,781.013h-11.395v-7.598h11.395V781.013z M930.165,781.013H918.77v-7.598h11.395V781.013z M907.374,781.013h-11.396v-7.598h11.396V781.013z M884.583,781.013h-11.396v-7.598h11.396V781.013z M861.792,781.013h-11.396 v-7.598h11.396V781.013z M839,781.013h-11.395v-7.598H839V781.013z M816.209,781.013h-11.396v-7.598h11.396V781.013z M793.418,781.013h-11.396v-7.598h11.396V781.013z M770.627,781.013h-11.396v-7.598h11.396V781.013z M747.836,781.013H736.44 v-7.598h11.396V781.013z M725.045,781.013H713.65v-7.598h11.396V781.013z M702.254,781.013h-11.396v-7.598h11.396V781.013z M679.463,781.013h-11.396v-7.598h11.396V781.013z M656.672,781.013h-11.396v-7.598h11.396V781.013z M633.881,781.013h-11.396 v-7.598h11.396V781.013z"/></svg>